<svg version="1.1" viewBox="0 0 36 36" xmlns="http://www.w3.org/2000/svg">
    <path d="M4 36s-4 0-4-4V4s0-4 4-4h26c1 0 2 1 2 1l3 3s1 1 1 2v26s0 4-4 4H4z" fill="#414141"/>
    <path d="M5 19v-1s0-2 2-2h21c2 0 2 2 2 2v1H5z" fill="#f60000"/>
    <path d="M5 32.021V19h25v13s0 2-2 2H7c-2 0-2-1.979-2-1.979zM10 3s0-1 1-1h18c1.048 0 1 1 1 1v10s0 1-1 1H11s-1 0-1-1V3zm12 10h5V3h-5v10z" fill="#E1E8ED"/>
    <path d="m23.159 20.674c-0.56109-0.36451-1.3124-0.20483-1.6784 0.35723l-5.2837 8.144-2.4409-2.257c-0.49217-0.45528-1.26-0.4247-1.7148 0.06697-0.45479 0.49217-0.4247 1.26 0.06746 1.7148l3.499 3.2355c0.23298 0.21599 0.52906 0.32277 0.82319 0.32277 0.32666 0 0.74456-0.13688 1.0188-0.55284 0.16114-0.2456 6.0671-9.3531 6.0671-9.3531 0.36451-0.56255 0.20434-1.3139-0.35772-1.6784z" fill="#f00" stroke-width=".48537"/>
</svg>
